# xmcd CD database file
#
# Track frame offsets:
#	150
#	22528
#	40607
#	59386
#	79124
#	102524
#	125681
#	146170
#	164716
#	182183
#	203837
#
# Disc length: 3038 seconds
#
# Revision: 0
# Processed by: cddbd v1.5.2PL0 Copyright (c) Steve Scherf et al.
# Submitted via: CDex 1.51
#
DISCID=970bdc0b
DTITLE=Vários - Água
DYEAR=1900
DGENRE=New Age
TTITLE0=Medley Waves and Dreams
TTITLE1=Moonlight Sun
TTITLE2=Dancing with Dolphings
TTITLE3=Lambada Galactica
TTITLE4=Nico's Whales
TTITLE5=In the Dewy Morn
TTITLE6=Southern Cross
TTITLE7=In the Night
TTITLE8=Valley of Dreams
TTITLE9=Firmament
TTITLE10=Resting in the Dawn
EXTD=
EXTT0=
EXTT1=
EXTT2=
EXTT3=
EXTT4=
EXTT5=
EXTT6=
EXTT7=
EXTT8=
EXTT9=
EXTT10=
PLAYORDER=
